<svg width="32" height="32" viewBox="0 0 32 32" fill="none" xmlns="http://www.w3.org/2000/svg">
<rect width="32" height="32" rx="8" fill="white"/>
<path d="M1.682 19.876H2.54C2.92133 19.8613 3.266 19.7953 3.574 19.678C3.882 19.5607 4.19 19.348 4.498 19.04C4.68867 18.8493 4.83533 18.666 4.938 18.49C5.04067 18.2993 5.114 18.1233 5.158 17.962C5.21667 17.786 5.25333 17.6173 5.268 17.456C5.29733 17.2947 5.32667 17.148 5.356 17.016V7.71H8.502V17.016C8.502 17.8373 8.348 18.6147 8.04 19.348C7.732 20.0667 7.30667 20.6973 6.764 21.24C6.22133 21.768 5.59067 22.1933 4.872 22.516C4.168 22.8387 3.41267 23 2.606 23H1.682V19.876ZM19.3715 18.556H13.1675C13.2849 18.8053 13.4682 19.062 13.7175 19.326C14.2602 19.8687 14.9202 20.14 15.6975 20.14C16.2989 20.1253 16.8415 19.942 17.3255 19.59L20.0535 21.328C19.5255 21.9293 18.8875 22.406 18.1395 22.758C17.4062 23.0953 16.5995 23.264 15.7195 23.264C14.8982 23.264 14.1209 23.11 13.3875 22.802C12.6689 22.494 12.0382 22.076 11.4955 21.548C10.9529 21.0053 10.5202 20.3747 10.1975 19.656C9.88955 18.9373 9.73555 18.1673 9.73555 17.346C9.73555 16.5247 9.88955 15.7547 10.1975 15.036C10.5055 14.3027 10.9235 13.6647 11.4515 13.122C11.9795 12.5793 12.6029 12.154 13.3215 11.846C14.0402 11.5233 14.8175 11.362 15.6535 11.362C16.4749 11.362 17.2449 11.516 17.9635 11.824C18.6969 12.132 19.3275 12.5573 19.8555 13.1C20.3982 13.628 20.8235 14.2513 21.1315 14.97C21.4542 15.6887 21.6155 16.4587 21.6155 17.28C21.6155 17.72 21.5715 18.1453 21.4835 18.556H19.3715ZM15.6535 14.552C14.8909 14.552 14.2382 14.8233 13.6955 15.366C13.3729 15.718 13.1455 16.0847 13.0135 16.466H18.3375C18.2055 16.0407 17.9709 15.6667 17.6335 15.344C17.0762 14.816 16.4162 14.552 15.6535 14.552ZM25.0262 23V14.816H22.4742V11.67H25.0262V7.71H28.1722V11.67H30.8122V14.816H28.1722V23H25.0262Z" fill="black"/>
</svg>
